<?xml version="1.0" standalone="no"?>
<!DOCTYPE svg PUBLIC "-//W3C//DTD SVG 20010904//EN"
 "http://www.w3.org/TR/2001/REC-SVG-20010904/DTD/svg10.dtd">
<svg version="1.0" xmlns="http://www.w3.org/2000/svg"
 width="500.000000pt" height="500.000000pt" viewBox="0 0 500.000000 500.000000"
 preserveAspectRatio="xMidYMid meet">
<metadata>
Created by potrace 1.11, written by Peter Selinger 2001-2013
</metadata>
<g transform="translate(0.000000,500.000000) scale(0.100000,-0.100000)"
fill="#000000" stroke="none">
<path d="M0 2500 l0 -2500 2500 0 2500 0 0 2500 0 2500 -2500 0 -2500 0 0
-2500z m2873 2390 c740 -45 1117 -191 1482 -571 295 -308 447 -616 502 -1014
22 -161 22 -441 -1 -605 -71 -524 -301 -981 -624 -1241 -240 -194 -519 -335
-757 -383 -240 -48 -408 -57 -1187 -63 l-718 -5 -2 -459 -3 -460 -714 1 c-393
0 -716 1 -717 3 -1 1 -5 853 -8 1892 -3 1040 -9 2121 -12 2403 l-6 512 1297 0
c779 0 1364 -4 1468 -10z"/>
<path d="M2140 4725 c-454 -62 -876 -309 -1162 -679 -170 -221 -282 -469 -340
-756 -30 -154 -33 -469 -5 -598 75 -339 206 -600 428 -851 264 -298 649 -505
1049 -562 109 -16 382 -16 485 0 491 75 927 354 1207 771 211 316 323 743 290
1106 -37 397 -177 700 -451 975 -283 283 -614 429 -1007 446 -357 16 -716
-102 -998 -327 -101 -79 -248 -240 -320 -347 -210 -316 -302 -702 -250 -1050
47 -318 197 -599 431 -806 168 -148 339 -237 564 -293 103 -26 130 -28 289
-28 159 0 186 2 289 28 257 64 447 173 629 360 192 197 312 427 359 691 19
107 21 331 4 425 -81 443 -427 793 -868 876 -120 22 -334 15 -453 -16 -106
-27 -284 -113 -371 -179 -244 -186 -395 -456 -429 -766 -19 -184 6 -328 86
-491 105 -216 299 -379 526 -445 115 -33 292 -37 411 -10 267 62 491 252 597
507 44 106 62 201 62 329 0 93 -4 122 -27 190 -38 114 -78 180 -159 260 -122
120 -262 178 -431 178 -169 0 -309 -58 -431 -178 -109 -107 -164 -221 -183
-372 -24 -202 61 -365 232 -444 64 -30 81 -33 158 -33 75 1 95 5 152 32 128
59 214 171 238 308 14 81 0 133 -51 184 -42 42 -100 58 -160 45 -44 -10 -106
-75 -120 -124 -11 -41 -11 -41 -60 -41 -50 0 -50 0 -50 33 0 49 42 127 93 174
47 43 121 73 182 73 61 0 135 -30 182 -73 66 -60 93 -124 93 -217 0 -285 -216
-500 -500 -500 -290 0 -504 220 -503 515 1 334 234 630 558 710 92 23 248 23
340 0 329 -81 556 -376 557 -720 2 -480 -341 -882 -814 -956 -168 -26 -383 6
-545 81 -252 117 -445 354 -520 640 -35 131 -36 338 -3 485 102 461 434 804
887 917 74 19 116 22 268 22 157 1 192 -2 270 -23 460 -120 789 -462 886 -922
30 -142 30 -359 0 -510 -59 -296 -185 -534 -396 -744 -208 -209 -455 -340
-740 -392 -108 -20 -377 -22 -475 -4 -196 36 -407 123 -567 233 -115 79 -287
254 -366 374 -185 279 -265 594 -237 926 51 600 382 1095 908 1358 219 109
438 162 682 164 85 0 193 -3 240 -8 164 -17 34 24 -155 49 -138 18 -354 18
-485 0z"/>
</g>
</svg>
